<mxfile host="Electron" agent="Mozilla/5.0 (Windows NT 10.0; Win64; x64) AppleWebKit/537.36 (KHTML, like Gecko) draw.io/28.2.5 Chrome/138.0.7204.251 Electron/37.6.1 Safari/537.36" version="28.2.5">
  <diagram name="Page-1" id="maYv2cO0PKjkBLh1SCZ8">
    <mxGraphModel dx="983" dy="1749" grid="1" gridSize="10" guides="1" tooltips="1" connect="1" arrows="1" fold="1" page="1" pageScale="1" pageWidth="827" pageHeight="1169" math="0" shadow="0">
      <root>
        <mxCell id="0" />
        <mxCell id="1" parent="0" />
        <mxCell id="QDpph7ZtXOl6hJ7DLvaS-2" value="one:Order" style="rounded=0;whiteSpace=wrap;html=1;snapToPoint=1;points=[[0.1,0],[0.2,0],[0.3,0],[0.4,0],[0.5,0],[0.6,0],[0.7,0],[0.8,0],[0.9,0],[0,0.1],[0,0.3],[0,0.5],[0,0.7],[0,0.9],[0.1,1],[0.2,1],[0.3,1],[0.4,1],[0.5,1],[0.6,1],[0.7,1],[0.8,1],[0.9,1],[1,0.1],[1,0.3],[1,0.5],[1,0.7],[1,0.9]];" vertex="1" parent="1">
          <mxGeometry x="70" y="179.9999999999999" width="136" height="30" as="geometry" />
        </mxCell>
        <mxCell id="QDpph7ZtXOl6hJ7DLvaS-3" value="one:OrderRespond" style="rounded=0;whiteSpace=wrap;html=1;snapToPoint=1;points=[[0.1,0],[0.2,0],[0.3,0],[0.4,0],[0.5,0],[0.6,0],[0.7,0],[0.8,0],[0.9,0],[0,0.1],[0,0.3],[0,0.5],[0,0.7],[0,0.9],[0.1,1],[0.2,1],[0.3,1],[0.4,1],[0.5,1],[0.6,1],[0.7,1],[0.8,1],[0.9,1],[1,0.1],[1,0.3],[1,0.5],[1,0.7],[1,0.9]];" vertex="1" parent="1">
          <mxGeometry x="230" y="80" width="136" height="30" as="geometry" />
        </mxCell>
        <mxCell id="QDpph7ZtXOl6hJ7DLvaS-4" value="one:OrderFinance" style="rounded=0;whiteSpace=wrap;html=1;snapToPoint=1;points=[[0.1,0],[0.2,0],[0.3,0],[0.4,0],[0.5,0],[0.6,0],[0.7,0],[0.8,0],[0.9,0],[0,0.1],[0,0.3],[0,0.5],[0,0.7],[0,0.9],[0.1,1],[0.2,1],[0.3,1],[0.4,1],[0.5,1],[0.6,1],[0.7,1],[0.8,1],[0.9,1],[1,0.1],[1,0.3],[1,0.5],[1,0.7],[1,0.9]];" vertex="1" parent="1">
          <mxGeometry x="390" y="-10" width="136" height="30" as="geometry" />
        </mxCell>
        <mxCell id="QDpph7ZtXOl6hJ7DLvaS-6" value="one:TransportOrder" style="rounded=0;whiteSpace=wrap;html=1;snapToPoint=1;points=[[0.1,0],[0.2,0],[0.3,0],[0.4,0],[0.5,0],[0.6,0],[0.7,0],[0.8,0],[0.9,0],[0,0.1],[0,0.3],[0,0.5],[0,0.7],[0,0.9],[0.1,1],[0.2,1],[0.3,1],[0.4,1],[0.5,1],[0.6,1],[0.7,1],[0.8,1],[0.9,1],[1,0.1],[1,0.3],[1,0.5],[1,0.7],[1,0.9]];" vertex="1" parent="1">
          <mxGeometry x="940" y="-80" width="136" height="30" as="geometry" />
        </mxCell>
        <mxCell id="QDpph7ZtXOl6hJ7DLvaS-8" value="one:Invoice" style="rounded=0;whiteSpace=wrap;html=1;snapToPoint=1;points=[[0.1,0],[0.2,0],[0.3,0],[0.4,0],[0.5,0],[0.6,0],[0.7,0],[0.8,0],[0.9,0],[0,0.1],[0,0.3],[0,0.5],[0,0.7],[0,0.9],[0.1,1],[0.2,1],[0.3,1],[0.4,1],[0.5,1],[0.6,1],[0.7,1],[0.8,1],[0.9,1],[1,0.1],[1,0.3],[1,0.5],[1,0.7],[1,0.9]];" vertex="1" parent="1">
          <mxGeometry x="1040" y="-170" width="136" height="30" as="geometry" />
        </mxCell>
        <mxCell id="QDpph7ZtXOl6hJ7DLvaS-9" value="one:Buyer" style="rounded=0;whiteSpace=wrap;html=1;snapToPoint=1;points=[[0.1,0],[0.2,0],[0.3,0],[0.4,0],[0.5,0],[0.6,0],[0.7,0],[0.8,0],[0.9,0],[0,0.1],[0,0.3],[0,0.5],[0,0.7],[0,0.9],[0.1,1],[0.2,1],[0.3,1],[0.4,1],[0.5,1],[0.6,1],[0.7,1],[0.8,1],[0.9,1],[1,0.1],[1,0.3],[1,0.5],[1,0.7],[1,0.9]];" vertex="1" parent="1">
          <mxGeometry x="60" y="290" width="136" height="30" as="geometry" />
        </mxCell>
        <mxCell id="QDpph7ZtXOl6hJ7DLvaS-10" value="one:Seller" style="rounded=0;whiteSpace=wrap;html=1;snapToPoint=1;points=[[0.1,0],[0.2,0],[0.3,0],[0.4,0],[0.5,0],[0.6,0],[0.7,0],[0.8,0],[0.9,0],[0,0.1],[0,0.3],[0,0.5],[0,0.7],[0,0.9],[0.1,1],[0.2,1],[0.3,1],[0.4,1],[0.5,1],[0.6,1],[0.7,1],[0.8,1],[0.9,1],[1,0.1],[1,0.3],[1,0.5],[1,0.7],[1,0.9]];" vertex="1" parent="1">
          <mxGeometry x="240" y="290" width="136" height="30" as="geometry" />
        </mxCell>
        <mxCell id="QDpph7ZtXOl6hJ7DLvaS-11" value="one:Delivery" style="rounded=0;whiteSpace=wrap;html=1;snapToPoint=1;points=[[0.1,0],[0.2,0],[0.3,0],[0.4,0],[0.5,0],[0.6,0],[0.7,0],[0.8,0],[0.9,0],[0,0.1],[0,0.3],[0,0.5],[0,0.7],[0,0.9],[0.1,1],[0.2,1],[0.3,1],[0.4,1],[0.5,1],[0.6,1],[0.7,1],[0.8,1],[0.9,1],[1,0.1],[1,0.3],[1,0.5],[1,0.7],[1,0.9]];" vertex="1" parent="1">
          <mxGeometry x="414" y="290" width="136" height="30" as="geometry" />
        </mxCell>
        <mxCell id="QDpph7ZtXOl6hJ7DLvaS-17" value="" style="endArrow=classic;html=1;exitX=0.5;exitY=1;exitDx=0;exitDy=0;entryX=0.5;entryY=0;entryDx=0;entryDy=0;endSize=8;arcSize=0;rounded=0;" edge="1" source="QDpph7ZtXOl6hJ7DLvaS-61" target="QDpph7ZtXOl6hJ7DLvaS-23" parent="1">
          <mxGeometry width="50" height="50" relative="1" as="geometry">
            <mxPoint x="520" y="538.3299999999999" as="sourcePoint" />
            <mxPoint x="1000" y="545" as="targetPoint" />
          </mxGeometry>
        </mxCell>
        <mxCell id="QDpph7ZtXOl6hJ7DLvaS-18" value="&lt;div&gt;one:hasprice&lt;/div&gt;" style="text;html=1;align=center;verticalAlign=middle;resizable=0;points=[];labelBackgroundColor=#ffffff;" vertex="1" connectable="0" parent="QDpph7ZtXOl6hJ7DLvaS-17">
          <mxGeometry x="-0.1269" relative="1" as="geometry">
            <mxPoint x="4.17" as="offset" />
          </mxGeometry>
        </mxCell>
        <mxCell id="QDpph7ZtXOl6hJ7DLvaS-23" value="one:Price" style="rounded=0;whiteSpace=wrap;html=1;snapToPoint=1;points=[[0.1,0],[0.2,0],[0.3,0],[0.4,0],[0.5,0],[0.6,0],[0.7,0],[0.8,0],[0.9,0],[0,0.1],[0,0.3],[0,0.5],[0,0.7],[0,0.9],[0.1,1],[0.2,1],[0.3,1],[0.4,1],[0.5,1],[0.6,1],[0.7,1],[0.8,1],[0.9,1],[1,0.1],[1,0.3],[1,0.5],[1,0.7],[1,0.9]];" vertex="1" parent="1">
          <mxGeometry x="670" y="290" width="180" height="30" as="geometry" />
        </mxCell>
        <mxCell id="QDpph7ZtXOl6hJ7DLvaS-27" value="schema:price" style="rounded=0;whiteSpace=wrap;html=1;snapToPoint=1;points=[[0.1,0],[0.2,0],[0.3,0],[0.4,0],[0.5,0],[0.6,0],[0.7,0],[0.8,0],[0.9,0],[0,0.1],[0,0.3],[0,0.5],[0,0.7],[0,0.9],[0.1,1],[0.2,1],[0.3,1],[0.4,1],[0.5,1],[0.6,1],[0.7,1],[0.8,1],[0.9,1],[1,0.1],[1,0.3],[1,0.5],[1,0.7],[1,0.9]];dashed=1;" vertex="1" parent="1">
          <mxGeometry x="670" y="320" width="180" height="30" as="geometry" />
        </mxCell>
        <mxCell id="QDpph7ZtXOl6hJ7DLvaS-28" value="schema:priceCurrency" style="rounded=0;whiteSpace=wrap;html=1;snapToPoint=1;points=[[0.1,0],[0.2,0],[0.3,0],[0.4,0],[0.5,0],[0.6,0],[0.7,0],[0.8,0],[0.9,0],[0,0.1],[0,0.3],[0,0.5],[0,0.7],[0,0.9],[0.1,1],[0.2,1],[0.3,1],[0.4,1],[0.5,1],[0.6,1],[0.7,1],[0.8,1],[0.9,1],[1,0.1],[1,0.3],[1,0.5],[1,0.7],[1,0.9]];dashed=1;" vertex="1" parent="1">
          <mxGeometry x="670" y="350" width="180" height="30" as="geometry" />
        </mxCell>
        <mxCell id="QDpph7ZtXOl6hJ7DLvaS-30" value="" style="endArrow=classic;html=1;exitX=0.5;exitY=1;exitDx=0;exitDy=0;entryX=0.5;entryY=0;entryDx=0;entryDy=0;endSize=8;arcSize=0;rounded=0;" edge="1" parent="1" source="QDpph7ZtXOl6hJ7DLvaS-6" target="QDpph7ZtXOl6hJ7DLvaS-29">
          <mxGeometry width="50" height="50" relative="1" as="geometry">
            <mxPoint x="1190" y="440" as="sourcePoint" />
            <mxPoint x="1360" y="440" as="targetPoint" />
          </mxGeometry>
        </mxCell>
        <mxCell id="QDpph7ZtXOl6hJ7DLvaS-31" value="&lt;div&gt;one:hasTransport&lt;/div&gt;" style="text;html=1;align=center;verticalAlign=middle;resizable=0;points=[];labelBackgroundColor=#ffffff;" vertex="1" connectable="0" parent="QDpph7ZtXOl6hJ7DLvaS-30">
          <mxGeometry x="-0.1269" relative="1" as="geometry">
            <mxPoint x="28" y="21" as="offset" />
          </mxGeometry>
        </mxCell>
        <mxCell id="QDpph7ZtXOl6hJ7DLvaS-29" value="one:Transport" style="rounded=0;whiteSpace=wrap;html=1;snapToPoint=1;points=[[0.1,0],[0.2,0],[0.3,0],[0.4,0],[0.5,0],[0.6,0],[0.7,0],[0.8,0],[0.9,0],[0,0.1],[0,0.3],[0,0.5],[0,0.7],[0,0.9],[0.1,1],[0.2,1],[0.3,1],[0.4,1],[0.5,1],[0.6,1],[0.7,1],[0.8,1],[0.9,1],[1,0.1],[1,0.3],[1,0.5],[1,0.7],[1,0.9]];" vertex="1" parent="1">
          <mxGeometry x="1020" y="190" width="136" height="30" as="geometry" />
        </mxCell>
        <mxCell id="QDpph7ZtXOl6hJ7DLvaS-36" value="" style="endArrow=classic;html=1;exitX=0.548;exitY=0.911;exitDx=0;exitDy=0;entryX=0.5;entryY=0;entryDx=0;entryDy=0;endSize=8;arcSize=0;rounded=0;exitPerimeter=0;" edge="1" parent="1" source="QDpph7ZtXOl6hJ7DLvaS-3" target="QDpph7ZtXOl6hJ7DLvaS-2">
          <mxGeometry width="50" height="50" relative="1" as="geometry">
            <mxPoint x="310.002" y="109.99999999999999" as="sourcePoint" />
            <mxPoint x="154.29" y="170.9899999999999" as="targetPoint" />
          </mxGeometry>
        </mxCell>
        <mxCell id="QDpph7ZtXOl6hJ7DLvaS-37" value="&lt;div&gt;one:hasOrder&lt;/div&gt;" style="text;html=1;align=center;verticalAlign=middle;resizable=0;points=[];labelBackgroundColor=#ffffff;" vertex="1" connectable="0" parent="QDpph7ZtXOl6hJ7DLvaS-36">
          <mxGeometry x="-0.1269" relative="1" as="geometry">
            <mxPoint x="2" y="-5" as="offset" />
          </mxGeometry>
        </mxCell>
        <mxCell id="QDpph7ZtXOl6hJ7DLvaS-39" value="" style="endArrow=classic;html=1;exitX=0.5;exitY=1;exitDx=0;exitDy=0;entryX=0.56;entryY=-0.006;entryDx=0;entryDy=0;endSize=8;arcSize=0;rounded=0;entryPerimeter=0;" edge="1" parent="1" source="QDpph7ZtXOl6hJ7DLvaS-2" target="QDpph7ZtXOl6hJ7DLvaS-9">
          <mxGeometry width="50" height="50" relative="1" as="geometry">
            <mxPoint x="350.71000000000004" y="150" as="sourcePoint" />
            <mxPoint x="200" y="213.9899999999999" as="targetPoint" />
          </mxGeometry>
        </mxCell>
        <mxCell id="QDpph7ZtXOl6hJ7DLvaS-40" value="&lt;div&gt;one:hasBuyer&lt;/div&gt;" style="text;html=1;align=center;verticalAlign=middle;resizable=0;points=[];labelBackgroundColor=#ffffff;" vertex="1" connectable="0" parent="QDpph7ZtXOl6hJ7DLvaS-39">
          <mxGeometry x="-0.1269" relative="1" as="geometry">
            <mxPoint x="-9" y="-5" as="offset" />
          </mxGeometry>
        </mxCell>
        <mxCell id="QDpph7ZtXOl6hJ7DLvaS-45" value="" style="endArrow=classic;html=1;exitX=0.6;exitY=1;exitDx=0;exitDy=0;entryX=0.5;entryY=0;entryDx=0;entryDy=0;endSize=8;arcSize=0;rounded=0;" edge="1" parent="1" source="QDpph7ZtXOl6hJ7DLvaS-2" target="QDpph7ZtXOl6hJ7DLvaS-10">
          <mxGeometry width="50" height="50" relative="1" as="geometry">
            <mxPoint x="172" y="260" as="sourcePoint" />
            <mxPoint x="170" y="340" as="targetPoint" />
          </mxGeometry>
        </mxCell>
        <mxCell id="QDpph7ZtXOl6hJ7DLvaS-46" value="&lt;div&gt;one:hasSeller&lt;/div&gt;" style="text;html=1;align=center;verticalAlign=middle;resizable=0;points=[];labelBackgroundColor=#ffffff;" vertex="1" connectable="0" parent="QDpph7ZtXOl6hJ7DLvaS-45">
          <mxGeometry x="-0.1269" relative="1" as="geometry">
            <mxPoint x="1" y="-5" as="offset" />
          </mxGeometry>
        </mxCell>
        <mxCell id="QDpph7ZtXOl6hJ7DLvaS-47" value="" style="endArrow=classic;html=1;exitX=0.6;exitY=1;exitDx=0;exitDy=0;entryX=0.561;entryY=-0.033;entryDx=0;entryDy=0;endSize=8;arcSize=0;rounded=0;entryPerimeter=0;" edge="1" parent="1" source="QDpph7ZtXOl6hJ7DLvaS-3" target="QDpph7ZtXOl6hJ7DLvaS-11">
          <mxGeometry width="50" height="50" relative="1" as="geometry">
            <mxPoint x="310" y="130" as="sourcePoint" />
            <mxPoint x="466" y="210" as="targetPoint" />
          </mxGeometry>
        </mxCell>
        <mxCell id="QDpph7ZtXOl6hJ7DLvaS-48" value="&lt;div&gt;one:hasDelivery&lt;/div&gt;" style="text;html=1;align=center;verticalAlign=middle;resizable=0;points=[];labelBackgroundColor=#ffffff;" vertex="1" connectable="0" parent="QDpph7ZtXOl6hJ7DLvaS-47">
          <mxGeometry x="-0.1269" relative="1" as="geometry">
            <mxPoint x="1" y="-5" as="offset" />
          </mxGeometry>
        </mxCell>
        <mxCell id="QDpph7ZtXOl6hJ7DLvaS-49" value="" style="endArrow=classic;html=1;exitX=0.5;exitY=1;exitDx=0;exitDy=0;entryX=0.5;entryY=0;entryDx=0;entryDy=0;endSize=8;arcSize=0;rounded=0;" edge="1" parent="1" source="QDpph7ZtXOl6hJ7DLvaS-4" target="QDpph7ZtXOl6hJ7DLvaS-3">
          <mxGeometry width="50" height="50" relative="1" as="geometry">
            <mxPoint x="551.5" y="58.5" as="sourcePoint" />
            <mxPoint x="384.5" y="131.5" as="targetPoint" />
          </mxGeometry>
        </mxCell>
        <mxCell id="QDpph7ZtXOl6hJ7DLvaS-50" value="&lt;div&gt;one:hasOrderRespond&lt;/div&gt;" style="text;html=1;align=center;verticalAlign=middle;resizable=0;points=[];labelBackgroundColor=#ffffff;" vertex="1" connectable="0" parent="QDpph7ZtXOl6hJ7DLvaS-49">
          <mxGeometry x="-0.1269" relative="1" as="geometry">
            <mxPoint x="2" y="-5" as="offset" />
          </mxGeometry>
        </mxCell>
        <mxCell id="QDpph7ZtXOl6hJ7DLvaS-51" value="one:Total" style="rounded=0;whiteSpace=wrap;html=1;snapToPoint=1;points=[[0.1,0],[0.2,0],[0.3,0],[0.4,0],[0.5,0],[0.6,0],[0.7,0],[0.8,0],[0.9,0],[0,0.1],[0,0.3],[0,0.5],[0,0.7],[0,0.9],[0.1,1],[0.2,1],[0.3,1],[0.4,1],[0.5,1],[0.6,1],[0.7,1],[0.8,1],[0.9,1],[1,0.1],[1,0.3],[1,0.5],[1,0.7],[1,0.9]];" vertex="1" parent="1">
          <mxGeometry x="540" y="390" width="180" height="30" as="geometry" />
        </mxCell>
        <mxCell id="QDpph7ZtXOl6hJ7DLvaS-52" value="schema:price" style="rounded=0;whiteSpace=wrap;html=1;snapToPoint=1;points=[[0.1,0],[0.2,0],[0.3,0],[0.4,0],[0.5,0],[0.6,0],[0.7,0],[0.8,0],[0.9,0],[0,0.1],[0,0.3],[0,0.5],[0,0.7],[0,0.9],[0.1,1],[0.2,1],[0.3,1],[0.4,1],[0.5,1],[0.6,1],[0.7,1],[0.8,1],[0.9,1],[1,0.1],[1,0.3],[1,0.5],[1,0.7],[1,0.9]];dashed=1;" vertex="1" parent="1">
          <mxGeometry x="540" y="420" width="180" height="30" as="geometry" />
        </mxCell>
        <mxCell id="QDpph7ZtXOl6hJ7DLvaS-53" value="schema:priceCurrency" style="rounded=0;whiteSpace=wrap;html=1;snapToPoint=1;points=[[0.1,0],[0.2,0],[0.3,0],[0.4,0],[0.5,0],[0.6,0],[0.7,0],[0.8,0],[0.9,0],[0,0.1],[0,0.3],[0,0.5],[0,0.7],[0,0.9],[0.1,1],[0.2,1],[0.3,1],[0.4,1],[0.5,1],[0.6,1],[0.7,1],[0.8,1],[0.9,1],[1,0.1],[1,0.3],[1,0.5],[1,0.7],[1,0.9]];dashed=1;" vertex="1" parent="1">
          <mxGeometry x="540" y="450" width="180" height="30" as="geometry" />
        </mxCell>
        <mxCell id="QDpph7ZtXOl6hJ7DLvaS-54" value="" style="endArrow=classic;html=1;exitX=0.7;exitY=1;exitDx=0;exitDy=0;entryX=0.2;entryY=0;entryDx=0;entryDy=0;endSize=8;arcSize=0;rounded=0;" edge="1" parent="1" source="QDpph7ZtXOl6hJ7DLvaS-4" target="QDpph7ZtXOl6hJ7DLvaS-61">
          <mxGeometry width="50" height="50" relative="1" as="geometry">
            <mxPoint x="510" y="50" as="sourcePoint" />
            <mxPoint x="730" y="130" as="targetPoint" />
          </mxGeometry>
        </mxCell>
        <mxCell id="QDpph7ZtXOl6hJ7DLvaS-55" value="&lt;div&gt;one:hasItem&lt;/div&gt;" style="text;html=1;align=center;verticalAlign=middle;resizable=0;points=[];labelBackgroundColor=#ffffff;" vertex="1" connectable="0" parent="QDpph7ZtXOl6hJ7DLvaS-54">
          <mxGeometry x="-0.1269" relative="1" as="geometry">
            <mxPoint x="2" y="-5" as="offset" />
          </mxGeometry>
        </mxCell>
        <mxCell id="QDpph7ZtXOl6hJ7DLvaS-56" value="" style="endArrow=classic;html=1;exitX=0.6;exitY=1;exitDx=0;exitDy=0;entryX=0.539;entryY=0.139;entryDx=0;entryDy=0;endSize=8;arcSize=0;rounded=0;entryPerimeter=0;" edge="1" parent="1" source="QDpph7ZtXOl6hJ7DLvaS-4" target="QDpph7ZtXOl6hJ7DLvaS-51">
          <mxGeometry width="50" height="50" relative="1" as="geometry">
            <mxPoint x="640" y="160" as="sourcePoint" />
            <mxPoint x="855" y="350" as="targetPoint" />
            <Array as="points">
              <mxPoint x="470" y="160" />
              <mxPoint x="637" y="240" />
            </Array>
          </mxGeometry>
        </mxCell>
        <mxCell id="QDpph7ZtXOl6hJ7DLvaS-57" value="&lt;div&gt;one:hasTotal&lt;/div&gt;" style="text;html=1;align=center;verticalAlign=middle;resizable=0;points=[];labelBackgroundColor=#ffffff;" vertex="1" connectable="0" parent="QDpph7ZtXOl6hJ7DLvaS-56">
          <mxGeometry x="-0.1269" relative="1" as="geometry">
            <mxPoint x="-21" y="-54" as="offset" />
          </mxGeometry>
        </mxCell>
        <mxCell id="QDpph7ZtXOl6hJ7DLvaS-59" value="" style="endArrow=block;html=1;fontColor=#000099;exitX=0.5;exitY=0;exitDx=0;exitDy=0;endFill=0;entryX=0.5;entryY=1;entryDx=0;entryDy=0;endSize=8;arcSize=0;rounded=0;" edge="1" source="QDpph7ZtXOl6hJ7DLvaS-61" target="QDpph7ZtXOl6hJ7DLvaS-60" parent="1">
          <mxGeometry width="50" height="50" relative="1" as="geometry">
            <mxPoint x="365" y="130" as="sourcePoint" />
            <mxPoint x="522.9999999999893" y="130" as="targetPoint" />
          </mxGeometry>
        </mxCell>
        <mxCell id="QDpph7ZtXOl6hJ7DLvaS-60" value="one:Item" style="rounded=0;whiteSpace=wrap;html=1;snapToPoint=1;points=[[0.1,0],[0.2,0],[0.3,0],[0.4,0],[0.5,0],[0.6,0],[0.7,0],[0.8,0],[0.9,0],[0,0.1],[0,0.3],[0,0.5],[0,0.7],[0,0.9],[0.1,1],[0.2,1],[0.3,1],[0.4,1],[0.5,1],[0.6,1],[0.7,1],[0.8,1],[0.9,1],[1,0.1],[1,0.3],[1,0.5],[1,0.7],[1,0.9]];" vertex="1" parent="1">
          <mxGeometry x="790" y="120" width="100" height="30" as="geometry" />
        </mxCell>
        <mxCell id="QDpph7ZtXOl6hJ7DLvaS-61" value="one:PricedItem" style="rounded=0;whiteSpace=wrap;html=1;snapToPoint=1;points=[[0.1,0],[0.2,0],[0.3,0],[0.4,0],[0.5,0],[0.6,0],[0.7,0],[0.8,0],[0.9,0],[0,0.1],[0,0.3],[0,0.5],[0,0.7],[0,0.9],[0.1,1],[0.2,1],[0.3,1],[0.4,1],[0.5,1],[0.6,1],[0.7,1],[0.8,1],[0.9,1],[1,0.1],[1,0.3],[1,0.5],[1,0.7],[1,0.9]];" vertex="1" parent="1">
          <mxGeometry x="710" y="190" width="100" height="30" as="geometry" />
        </mxCell>
        <mxCell id="QDpph7ZtXOl6hJ7DLvaS-62" value="" style="endArrow=classic;html=1;exitX=0.456;exitY=0.917;exitDx=0;exitDy=0;entryX=0.653;entryY=0.222;entryDx=0;entryDy=0;endSize=8;arcSize=0;rounded=0;exitPerimeter=0;entryPerimeter=0;" edge="1" parent="1" source="QDpph7ZtXOl6hJ7DLvaS-6" target="QDpph7ZtXOl6hJ7DLvaS-72">
          <mxGeometry width="50" height="50" relative="1" as="geometry">
            <mxPoint x="680" y="140" as="sourcePoint" />
            <mxPoint x="905" y="290" as="targetPoint" />
          </mxGeometry>
        </mxCell>
        <mxCell id="QDpph7ZtXOl6hJ7DLvaS-63" value="&lt;div&gt;one:hasItem&lt;/div&gt;" style="text;html=1;align=center;verticalAlign=middle;resizable=0;points=[];labelBackgroundColor=#ffffff;" vertex="1" connectable="0" parent="QDpph7ZtXOl6hJ7DLvaS-62">
          <mxGeometry x="-0.1269" relative="1" as="geometry">
            <mxPoint x="3" y="22" as="offset" />
          </mxGeometry>
        </mxCell>
        <mxCell id="QDpph7ZtXOl6hJ7DLvaS-64" value="" style="endArrow=classic;html=1;exitX=0;exitY=0.5;exitDx=0;exitDy=0;entryX=0.5;entryY=0;entryDx=0;entryDy=0;endSize=8;arcSize=0;rounded=0;" edge="1" parent="1" source="QDpph7ZtXOl6hJ7DLvaS-6" target="QDpph7ZtXOl6hJ7DLvaS-3">
          <mxGeometry width="50" height="50" relative="1" as="geometry">
            <mxPoint x="666" y="-120" as="sourcePoint" />
            <mxPoint x="190.00400000000005" y="-20.169999999999845" as="targetPoint" />
            <Array as="points">
              <mxPoint x="530" y="-75" />
              <mxPoint x="298" y="-70" />
            </Array>
          </mxGeometry>
        </mxCell>
        <mxCell id="QDpph7ZtXOl6hJ7DLvaS-65" value="&lt;div&gt;one:hasOrderRespond&lt;/div&gt;" style="text;html=1;align=center;verticalAlign=middle;resizable=0;points=[];labelBackgroundColor=#ffffff;" vertex="1" connectable="0" parent="QDpph7ZtXOl6hJ7DLvaS-64">
          <mxGeometry x="-0.1269" relative="1" as="geometry">
            <mxPoint x="2" y="-5" as="offset" />
          </mxGeometry>
        </mxCell>
        <mxCell id="QDpph7ZtXOl6hJ7DLvaS-66" value="" style="endArrow=classic;html=1;entryX=0.5;entryY=0;entryDx=0;entryDy=0;endSize=8;arcSize=0;rounded=0;exitX=0;exitY=0.5;exitDx=0;exitDy=0;" edge="1" parent="1" source="QDpph7ZtXOl6hJ7DLvaS-8" target="QDpph7ZtXOl6hJ7DLvaS-4">
          <mxGeometry width="50" height="50" relative="1" as="geometry">
            <mxPoint x="700" y="-150" as="sourcePoint" />
            <mxPoint x="540" y="-90" as="targetPoint" />
            <Array as="points">
              <mxPoint x="600" y="-150" />
            </Array>
          </mxGeometry>
        </mxCell>
        <mxCell id="QDpph7ZtXOl6hJ7DLvaS-67" value="&lt;div&gt;one:hasOrderFinance&lt;/div&gt;" style="text;html=1;align=center;verticalAlign=middle;resizable=0;points=[];labelBackgroundColor=#ffffff;" vertex="1" connectable="0" parent="QDpph7ZtXOl6hJ7DLvaS-66">
          <mxGeometry x="-0.1269" relative="1" as="geometry">
            <mxPoint x="2" y="-5" as="offset" />
          </mxGeometry>
        </mxCell>
        <mxCell id="QDpph7ZtXOl6hJ7DLvaS-68" value="" style="endArrow=classic;html=1;exitX=0.5;exitY=1;exitDx=0;exitDy=0;entryX=0.6;entryY=0;entryDx=0;entryDy=0;endSize=8;arcSize=0;rounded=0;" edge="1" parent="1" source="QDpph7ZtXOl6hJ7DLvaS-8" target="QDpph7ZtXOl6hJ7DLvaS-29">
          <mxGeometry width="50" height="50" relative="1" as="geometry">
            <mxPoint x="820" y="30" as="sourcePoint" />
            <mxPoint x="956" y="190" as="targetPoint" />
          </mxGeometry>
        </mxCell>
        <mxCell id="QDpph7ZtXOl6hJ7DLvaS-69" value="&lt;div&gt;one:hasTransport&lt;/div&gt;" style="text;html=1;align=center;verticalAlign=middle;resizable=0;points=[];labelBackgroundColor=#ffffff;" vertex="1" connectable="0" parent="QDpph7ZtXOl6hJ7DLvaS-68">
          <mxGeometry x="-0.1269" relative="1" as="geometry">
            <mxPoint x="11" y="-10" as="offset" />
          </mxGeometry>
        </mxCell>
        <mxCell id="QDpph7ZtXOl6hJ7DLvaS-70" value="" style="endArrow=classic;html=1;entryX=0.974;entryY=0.694;entryDx=0;entryDy=0;endSize=8;arcSize=0;rounded=0;entryPerimeter=0;exitX=1;exitY=0.5;exitDx=0;exitDy=0;" edge="1" parent="1" source="QDpph7ZtXOl6hJ7DLvaS-8" target="QDpph7ZtXOl6hJ7DLvaS-52">
          <mxGeometry width="50" height="50" relative="1" as="geometry">
            <mxPoint x="1000" y="380" as="sourcePoint" />
            <mxPoint x="847" y="744" as="targetPoint" />
            <Array as="points">
              <mxPoint x="1200" y="-135" />
              <mxPoint x="1200" y="450" />
            </Array>
          </mxGeometry>
        </mxCell>
        <mxCell id="QDpph7ZtXOl6hJ7DLvaS-71" value="&lt;div&gt;one:hasTotal&lt;/div&gt;" style="text;html=1;align=center;verticalAlign=middle;resizable=0;points=[];labelBackgroundColor=#ffffff;" vertex="1" connectable="0" parent="QDpph7ZtXOl6hJ7DLvaS-70">
          <mxGeometry x="-0.1269" relative="1" as="geometry">
            <mxPoint x="-7" y="-91" as="offset" />
          </mxGeometry>
        </mxCell>
        <mxCell id="QDpph7ZtXOl6hJ7DLvaS-72" value="one:TransportItem" style="rounded=0;whiteSpace=wrap;html=1;snapToPoint=1;points=[[0.1,0],[0.2,0],[0.3,0],[0.4,0],[0.5,0],[0.6,0],[0.7,0],[0.8,0],[0.9,0],[0,0.1],[0,0.3],[0,0.5],[0,0.7],[0,0.9],[0.1,1],[0.2,1],[0.3,1],[0.4,1],[0.5,1],[0.6,1],[0.7,1],[0.8,1],[0.9,1],[1,0.1],[1,0.3],[1,0.5],[1,0.7],[1,0.9]];" vertex="1" parent="1">
          <mxGeometry x="890" y="190" width="110" height="30" as="geometry" />
        </mxCell>
        <mxCell id="QDpph7ZtXOl6hJ7DLvaS-73" value="" style="endArrow=block;html=1;fontColor=#000099;exitX=0.6;exitY=0;exitDx=0;exitDy=0;endFill=0;entryX=0.6;entryY=1;entryDx=0;entryDy=0;endSize=8;arcSize=0;rounded=0;" edge="1" parent="1" source="QDpph7ZtXOl6hJ7DLvaS-72" target="QDpph7ZtXOl6hJ7DLvaS-60">
          <mxGeometry width="50" height="50" relative="1" as="geometry">
            <mxPoint x="710" y="220" as="sourcePoint" />
            <mxPoint x="760" y="160" as="targetPoint" />
          </mxGeometry>
        </mxCell>
        <mxCell id="QDpph7ZtXOl6hJ7DLvaS-74" value="one:Pack kg m3" style="rounded=0;whiteSpace=wrap;html=1;snapToPoint=1;points=[[0.1,0],[0.2,0],[0.3,0],[0.4,0],[0.5,0],[0.6,0],[0.7,0],[0.8,0],[0.9,0],[0,0.1],[0,0.3],[0,0.5],[0,0.7],[0,0.9],[0.1,1],[0.2,1],[0.3,1],[0.4,1],[0.5,1],[0.6,1],[0.7,1],[0.8,1],[0.9,1],[1,0.1],[1,0.3],[1,0.5],[1,0.7],[1,0.9]];dashed=1;" vertex="1" parent="1">
          <mxGeometry x="890" y="220" width="110" height="30" as="geometry" />
        </mxCell>
      </root>
    </mxGraphModel>
  </diagram>
</mxfile>
